<?xml version="1.0" encoding="iso-8859-1"?>
<!-- Generator: Adobe Illustrator 19.0.0, SVG Export Plug-In . SVG Version: 6.00 Build 0)  -->
<svg version="1.1" id="Capa_1" xmlns="http://www.w3.org/2000/svg" xmlns:xlink="http://www.w3.org/1999/xlink" x="0px" y="0px"
	 viewBox="0 0 512 512" style="enable-background:new 0 0 512 512;" xml:space="preserve">
<path style="fill:#ECEDEF;" d="M179.466,101.881V53.043c0-25.153,20.39-45.543,45.543-45.543h61.982
	c25.153,0,45.543,20.39,45.543,45.543v48.838 M302.022,101.881V50.774c0-7.048-5.713-12.761-12.761-12.761H222.74
	c-7.048,0-12.761,5.713-12.761,12.761v51.107"/>
<g>
	<path style="fill:#D2D2D2;" d="M195.739,50.774v51.107h14.239V50.774c0-7.048,5.714-12.761,12.761-12.761H208.5
		C201.453,38.012,195.739,43.726,195.739,50.774z"/>
	<path style="fill:#D2D2D2;" d="M286.991,7.5h-14.239c25.153,0,45.543,20.39,45.543,45.543v48.838h14.239V53.043
		C332.534,27.89,312.144,7.5,286.991,7.5z"/>
</g>
<rect x="152.12" y="359.12" style="fill:#B6E4EA;" width="207.75" height="111.86"/>
<g>
	<path style="fill:#606673;" d="M365.88,504.5H146.121c-2.878,0-5.21-2.333-5.21-5.21v-23.096c0-2.878,2.333-5.21,5.21-5.21H365.88
		c2.878,0,5.21,2.333,5.21,5.21v23.096C371.09,502.168,368.757,504.5,365.88,504.5z"/>
	<path style="fill:#606673;" d="M365.88,135.398H146.121c-2.878,0-5.21-2.333-5.21-5.21v-23.096c0-2.878,2.333-5.21,5.21-5.21
		H365.88c2.878,0,5.21,2.333,5.21,5.21v23.096C371.09,133.065,368.757,135.398,365.88,135.398z"/>
</g>
<path style="fill:#535963;" d="M365.88,101.881h-55.6c2.878,0,5.21,2.333,5.21,5.21v23.096c0,2.877-2.333,5.21-5.21,5.21h55.599
	c2.877,0,5.21-2.333,5.21-5.21v-23.096C371.09,104.214,368.757,101.881,365.88,101.881z"/>
<rect x="152.12" y="247.26" style="fill:#96D7EE;" width="207.75" height="111.86"/>
<rect x="152.12" y="135.4" style="fill:#B6E4EA;" width="207.75" height="111.86"/>
<rect x="313.12" y="359.12" style="fill:#96D7EE;" width="46.761" height="111.86"/>
<path style="fill:#535963;" d="M365.88,470.984h-46.761c2.878,0,5.21,2.333,5.21,5.21v23.096c0,2.877-2.333,5.21-5.21,5.21h46.761
	c2.877,0,5.21-2.333,5.21-5.21v-23.096C371.09,473.316,368.757,470.984,365.88,470.984z"/>
<rect x="313.12" y="247.26" style="fill:#7AC9ED;" width="46.761" height="111.86"/>
<rect x="313.12" y="135.4" style="fill:#96D7EE;" width="46.761" height="111.86"/>
<circle style="fill:#A596EB;" cx="259.84" cy="303.19" r="26.821"/>
<path d="M391.227,401.039c4.142,0,7.5-3.357,7.5-7.5V117.556c0-12.778-10.396-23.175-23.174-23.175h-9.673h-6.002h-19.844V53.043
	C340.034,23.795,316.239,0,286.991,0h-61.982c-29.248,0-53.043,23.795-53.043,53.043v41.338h-19.844h-6.001h-9.673
	c-12.779,0-23.175,10.396-23.175,23.175v354.512c0,11.748,8.79,21.476,20.137,22.969v4.253c0,7.008,5.702,12.71,12.71,12.71h219.76
	c7.008,0,12.71-5.702,12.71-12.71v-4.253c11.347-1.493,20.137-11.221,20.137-22.969v-42.632c0-4.143-3.358-7.5-7.5-7.5
	s-7.5,3.357-7.5,7.5v42.632c0,3.434-2.131,6.375-5.137,7.583v-3.457c0-6.5-4.908-11.869-11.212-12.614V359.122V247.26V142.801
	c6.304-0.745,11.212-6.113,11.212-12.614v-20.215c3.006,1.209,5.137,4.149,5.137,7.583v275.983
	C383.727,397.682,387.085,401.039,391.227,401.039z M159.622,366.622h192.755v96.861H159.622V366.622z M186.966,53.043
	c0-20.977,17.066-38.043,38.043-38.043h61.982c20.977,0,38.043,17.066,38.043,38.043v41.338h-15.512V50.773
	c0-11.172-9.089-20.262-20.262-20.262h-66.52c-11.172,0-20.261,9.09-20.261,20.262V94.38h-15.512V53.043H186.966z M217.478,94.381
	V50.773c0-2.901,2.36-5.262,5.261-5.262h66.521c2.901,0,5.262,2.36,5.262,5.262V94.38L217.478,94.381L217.478,94.381z
	 M152.122,109.381h207.755h3.712v18.517h-39.991c-4.142,0-7.5,3.357-7.5,7.5s3.358,7.5,7.5,7.5h28.779v96.862H214.755
	c-4.142,0-7.5,3.357-7.5,7.5s3.358,7.5,7.5,7.5h137.623v96.862H159.622V254.76h19.844c4.142,0,7.5-3.357,7.5-7.5s-3.358-7.5-7.5-7.5
	h-19.844v-96.862h127.041c4.142,0,7.5-3.357,7.5-7.5s-3.358-7.5-7.5-7.5H148.41v-18.517H152.122z M128.273,472.067V117.556
	c0-3.434,2.131-6.375,5.137-7.583v20.215c0,6.5,4.908,11.868,11.212,12.614V247.26v111.862V463.58
	c-6.303,0.745-11.212,6.114-11.212,12.614v3.457C130.404,478.442,128.273,475.501,128.273,472.067z M363.59,497H148.41v-18.517
	h3.712h207.755h3.712L363.59,497L363.59,497z"/>
<path d="M259.842,337.512c18.924,0,34.321-15.396,34.321-34.321c0-18.924-15.396-34.32-34.321-34.32s-34.321,15.396-34.321,34.32
	C225.521,322.115,240.918,337.512,259.842,337.512z M259.842,283.87c10.653,0,19.321,8.667,19.321,19.32
	s-8.667,19.321-19.321,19.321s-19.321-8.668-19.321-19.321S249.189,283.87,259.842,283.87z"/>
<g>
</g>
<g>
</g>
<g>
</g>
<g>
</g>
<g>
</g>
<g>
</g>
<g>
</g>
<g>
</g>
<g>
</g>
<g>
</g>
<g>
</g>
<g>
</g>
<g>
</g>
<g>
</g>
<g>
</g>
</svg>
